<?xml version="1.0" encoding="UTF-8" standalone="no"?>
<svg width="208px" height="208px" viewBox="0 0 208 208" version="1.1" xmlns="http://www.w3.org/2000/svg" xmlns:xlink="http://www.w3.org/1999/xlink">
    <!-- Generator: Sketch 42 (36781) - http://www.bohemiancoding.com/sketch -->
    <title>Page 1</title>
    <desc>Created with Sketch.</desc>
    <defs>
        <path d="M0,104 C0,161.437 46.562,208 104,208 C161.437,208 208,161.437 208,104 C208,46.562 161.437,0 104,0 C46.562,0 0,46.562 0,104 Z" id="path-1"></path>
        <path d="M0.301,87.5 C8.209,137.095 51.178,175 103,175 C154.821,175 197.791,137.095 205.698,87.5 C197.791,37.905 154.821,0 103,0 C51.178,0 8.209,37.905 0.301,87.5 Z" id="path-3"></path>
        <path d="M38.7639876,185.000002 C15.1232187,165.935998 0,136.733923 0,104 C0,46.562 46.562,0 104,0 C161.437,0 208,46.562 208,104 C208,136.733923 192.876456,165.935998 169.235593,185.000002 L38.7639876,185.000002 L38.7639876,185.000002 Z" id="path-5"></path>
    </defs>
    <g id="Page-1" stroke="none" stroke-width="1" fill="none" fill-rule="evenodd">
        <g>
            <g id="Group-3">
                <mask id="mask-2" fill="white">
                    <use xlink:href="#path-1"></use>
                </mask>
                <g id="Clip-2"></g>
                <polygon id="Fill-1" fill="#E8E7E7" mask="url(#mask-2)" points="-5 213 213 213 213 -5 -5 -5"></polygon>
            </g>
            <g id="Group-6" transform="translate(1.000000, 0.000000)">
                <mask id="mask-4" fill="white">
                    <use xlink:href="#path-3"></use>
                </mask>
                <g id="Clip-5"></g>
                <polygon id="Fill-4" fill="#F3F3F3" mask="url(#mask-4)" points="-6 180 212 180 212 -38 -6 -38"></polygon>
            </g>
            <g id="Group-9">
                <mask id="mask-6" fill="white">
                    <use xlink:href="#path-5"></use>
                </mask>
                <g id="Clip-8"></g>
                <path d="M104,175 L104,185 C119.712,185.001 134.733,181.81 148.377,176.037 C168.848,167.376 186.234,152.935 198.525,134.745 C210.815,116.563 218.004,94.576 218,71 C218.001,55.288 214.81,40.267 209.037,26.623 C200.376,6.152 185.935,-11.234 167.745,-23.525 C149.563,-35.815 127.576,-43.004 104,-43 C88.287,-43.001 73.267,-39.81 59.623,-34.037 C39.152,-25.376 21.766,-10.935 9.475,7.255 C-2.815,25.437 -10.004,47.424 -10,71 C-10.001,86.712 -6.81,101.733 -1.037,115.377 C7.624,135.848 22.065,153.234 40.255,165.525 C58.437,177.815 80.424,185.004 104,185 L104,175 L104,165 C90.994,164.999 78.655,162.37 67.414,157.617 C50.558,150.49 36.185,138.557 26.048,123.549 C15.911,108.535 10.004,90.503 10,71 C10.001,57.994 12.63,45.655 17.383,34.414 C24.51,17.558 36.443,3.185 51.451,-6.952 C66.465,-17.089 84.497,-22.996 104,-23 C117.006,-22.999 129.345,-20.37 140.586,-15.617 C157.442,-8.49 171.815,3.443 181.952,18.451 C192.089,33.465 197.996,51.497 198,71 C197.999,84.006 195.37,96.345 190.617,107.586 C183.49,124.442 171.557,138.815 156.549,148.952 C141.535,159.089 123.503,164.996 104,165 L104,175 Z" id="Fill-7" fill="#F3F3F3" mask="url(#mask-6)"></path>
            </g>
            <g id="Group-20" transform="translate(34.000000, 71.000000)">
                <path d="M37.3768,47.2907 C38.5938,65.1157 51.7618,79.6637 70.1538,79.6627 C88.4218,79.6617 101.3558,65.0937 101.9018,47.2907 C102.0998,40.8537 92.0998,40.8597 91.9018,47.2907 C91.8108,50.2767 91.0068,54.0357 89.3298,57.7327 C85.7668,65.5907 78.7298,69.6767 70.1538,69.6627 C61.6088,69.6477 54.5698,65.6987 50.6178,58.0927 C49.3128,55.5797 48.4438,52.8687 47.8438,50.1037 C47.6518,49.2167 47.5018,48.3247 47.3618,47.4277 C47.6008,48.9597 47.4018,47.6557 47.3768,47.2907 C46.9408,40.9047 36.9378,40.8567 37.3768,47.2907" id="Fill-10" fill="#2E2E39"></path>
                <path d="M108.4268,29.5549 C108.4268,32.9049 114.1138,35.6219 121.1288,35.6219 C128.1438,35.6219 133.8308,32.9049 133.8308,29.5549 C133.8308,26.2049 128.1438,23.4879 121.1288,23.4879 C114.1138,23.4879 108.4268,26.2049 108.4268,29.5549" id="Fill-12" fill="#FFCCF2"></path>
                <path d="M22.9653,8.5969 C22.9653,13.2039 26.7003,16.9389 31.3063,16.9389 C35.9133,16.9389 39.6483,13.2039 39.6483,8.5969 C39.6483,3.9899 35.9133,0.2559 31.3063,0.2559 C26.7003,0.2559 22.9653,3.9899 22.9653,8.5969" id="Fill-14" fill="#000000"></path>
                <path d="M96.9653,8.5969 C96.9653,13.2039 100.7003,16.9389 105.3063,16.9389 C109.9133,16.9389 113.6483,13.2039 113.6483,8.5969 C113.6483,3.9899 109.9133,0.2559 105.3063,0.2559 C100.7003,0.2559 96.9653,3.9899 96.9653,8.5969" id="Fill-16" fill="#000000"></path>
                <path d="M0.4268,29.5549 C0.4268,32.9049 6.1138,35.6219 13.1288,35.6219 C20.1438,35.6219 25.8308,32.9049 25.8308,29.5549 C25.8308,26.2049 20.1438,23.4879 13.1288,23.4879 C6.1138,23.4879 0.4268,26.2049 0.4268,29.5549" id="Fill-18" fill="#FFCCF2"></path>
            </g>
        </g>
    </g>
</svg>