<?xml version="1.0" encoding="UTF-8" standalone="no"?>
<svg width="232px" height="232px" viewBox="0 0 232 232" version="1.1" xmlns="http://www.w3.org/2000/svg" xmlns:xlink="http://www.w3.org/1999/xlink">
    <!-- Generator: Sketch 42 (36781) - http://www.bohemiancoding.com/sketch -->
    <title>Group 3</title>
    <desc>Created with Sketch.</desc>
    <defs>
        <rect id="path-1" x="44" y="60" width="138.673469" height="111.233533"></rect>
        <mask id="mask-2" maskContentUnits="userSpaceOnUse" maskUnits="objectBoundingBox" x="0" y="0" width="138.673469" height="111.233533" fill="white">
            <use xlink:href="#path-1"></use>
        </mask>
        <rect id="path-3" x="44" y="60" width="138.673469" height="23.9461078"></rect>
        <mask id="mask-4" maskContentUnits="userSpaceOnUse" maskUnits="objectBoundingBox" x="0" y="0" width="138.673469" height="23.9461078" fill="white">
            <use xlink:href="#path-3"></use>
        </mask>
        <rect id="path-5" x="57.8673469" y="54" width="15.4081633" height="15.4491018"></rect>
        <mask id="mask-6" maskContentUnits="userSpaceOnUse" maskUnits="objectBoundingBox" x="0" y="0" width="15.4081633" height="15.4491018" fill="white">
            <use xlink:href="#path-5"></use>
        </mask>
        <rect id="path-7" x="148.77551" y="54" width="15.4081633" height="15.4491018"></rect>
        <mask id="mask-8" maskContentUnits="userSpaceOnUse" maskUnits="objectBoundingBox" x="0" y="0" width="15.4081633" height="15.4491018" fill="white">
            <use xlink:href="#path-7"></use>
        </mask>
    </defs>
    <g id="Page-1" stroke="none" stroke-width="1" fill="none" fill-rule="evenodd">
        <g id="Group-3" transform="translate(0.000000, -1.000000)">
            <g id="Group-2" transform="translate(0.000000, 0.179641)">
                <circle id="Oval" fill="#404160" cx="116" cy="116.820359" r="116"></circle>
                <use id="Rectangle-2" stroke="#F3F3F3" mask="url(#mask-2)" stroke-width="10" xlink:href="#path-1"></use>
                <use id="Rectangle-2" stroke="#F3F3F3" mask="url(#mask-4)" stroke-width="10" xlink:href="#path-3"></use>
                <g id="days" transform="translate(94.351676, 93.988024)" stroke="#F3F3F3" stroke-width="4" fill="#F3F3F3">
                    <ellipse id="Oval-2" cx="2.06359329" cy="1.93113772" rx="2.06359329" ry="1.93113772"></ellipse>
                    <ellipse id="Oval-2" cx="18.5723397" cy="1.93113772" rx="2.06359329" ry="1.93113772"></ellipse>
                    <ellipse id="Oval-2" cx="35.081086" cy="1.93113772" rx="2.06359329" ry="1.93113772"></ellipse>
                    <ellipse id="Oval-2" cx="51.5898324" cy="1.93113772" rx="2.06359329" ry="1.93113772"></ellipse>
                    <ellipse id="Oval-2" cx="68.0985787" cy="1.93113772" rx="2.06359329" ry="1.93113772"></ellipse>
                </g>
                <g id="days" transform="translate(61.334184, 152.694611)" stroke="#F3F3F3" stroke-width="4" fill="#F3F3F3">
                    <ellipse id="Oval-2" cx="2.06359329" cy="1.93113772" rx="2.06359329" ry="1.93113772"></ellipse>
                    <ellipse id="Oval-2" cx="18.5723397" cy="1.93113772" rx="2.06359329" ry="1.93113772"></ellipse>
                    <ellipse id="Oval-2" cx="35.081086" cy="1.93113772" rx="2.06359329" ry="1.93113772"></ellipse>
                    <ellipse id="Oval-2" cx="51.5898324" cy="1.93113772" rx="2.06359329" ry="1.93113772"></ellipse>
                    <ellipse id="Oval-2" cx="68.0985787" cy="1.93113772" rx="2.06359329" ry="1.93113772"></ellipse>
                </g>
                <g id="days" transform="translate(61.334184, 108.664671)" stroke="#F3F3F3" stroke-width="4" fill="#F3F3F3">
                    <ellipse id="Oval-2" cx="2.06359329" cy="1.93113772" rx="2.06359329" ry="1.93113772"></ellipse>
                    <ellipse id="Oval-2" cx="18.5723397" cy="1.93113772" rx="2.06359329" ry="1.93113772"></ellipse>
                    <ellipse id="Oval-2" cx="35.081086" cy="1.93113772" rx="2.06359329" ry="1.93113772"></ellipse>
                    <ellipse id="Oval-2" cx="51.5898324" cy="1.93113772" rx="2.06359329" ry="1.93113772"></ellipse>
                    <ellipse id="Oval-2" cx="68.0985787" cy="1.93113772" rx="2.06359329" ry="1.93113772"></ellipse>
                    <ellipse id="Oval-2" cx="84.6073251" cy="1.93113772" rx="2.06359329" ry="1.93113772"></ellipse>
                    <ellipse id="Oval-2" cx="101.116071" cy="1.93113772" rx="2.06359329" ry="1.93113772"></ellipse>
                </g>
                <g id="days" transform="translate(61.334184, 123.341317)" stroke="#F3F3F3" stroke-width="4" fill="#F3F3F3">
                    <ellipse id="Oval-2" cx="2.06359329" cy="1.93113772" rx="2.06359329" ry="1.93113772"></ellipse>
                    <ellipse id="Oval-2" cx="18.5723397" cy="1.93113772" rx="2.06359329" ry="1.93113772"></ellipse>
                    <ellipse id="Oval-2" cx="35.081086" cy="1.93113772" rx="2.06359329" ry="1.93113772"></ellipse>
                    <ellipse id="Oval-2" cx="51.5898324" cy="1.93113772" rx="2.06359329" ry="1.93113772"></ellipse>
                    <ellipse id="Oval-2" cx="68.0985787" cy="1.93113772" rx="2.06359329" ry="1.93113772"></ellipse>
                    <ellipse id="Oval-2" cx="84.6073251" cy="1.93113772" rx="2.06359329" ry="1.93113772"></ellipse>
                    <ellipse id="Oval-2" cx="101.116071" cy="1.93113772" rx="2.06359329" ry="1.93113772"></ellipse>
                </g>
                <g id="days" transform="translate(61.334184, 138.017964)" stroke="#F3F3F3" stroke-width="4" fill="#F3F3F3">
                    <ellipse id="Oval-2" cx="2.06359329" cy="1.93113772" rx="2.06359329" ry="1.93113772"></ellipse>
                    <ellipse id="Oval-2" cx="18.5723397" cy="1.93113772" rx="2.06359329" ry="1.93113772"></ellipse>
                    <ellipse id="Oval-2" cx="35.081086" cy="1.93113772" rx="2.06359329" ry="1.93113772"></ellipse>
                    <ellipse id="Oval-2" cx="51.5898324" cy="1.93113772" rx="2.06359329" ry="1.93113772"></ellipse>
                    <ellipse id="Oval-2" cx="68.0985787" cy="1.93113772" rx="2.06359329" ry="1.93113772"></ellipse>
                    <ellipse id="Oval-2" cx="84.6073251" cy="1.93113772" rx="2.06359329" ry="1.93113772"></ellipse>
                    <ellipse id="Oval-2" cx="101.116071" cy="1.93113772" rx="2.06359329" ry="1.93113772"></ellipse>
                </g>
            </g>
            <ellipse id="Oval-3" stroke="#F3F3F3" stroke-width="5" fill="#F3F3F3" cx="175.739796" cy="163.688623" rx="19.2602041" ry="19.3113772"></ellipse>
            <use id="Rectangle-3" stroke="#F3F3F3" mask="url(#mask-6)" stroke-width="10" fill="#404160" xlink:href="#path-5"></use>
            <use id="Rectangle-3" stroke="#F3F3F3" mask="url(#mask-8)" stroke-width="10" fill="#404160" xlink:href="#path-7"></use>
        </g>
    </g>
</svg>