<?xml version="1.0" encoding="UTF-8" standalone="no"?>
<svg width="99px" height="99px" viewBox="0 0 99 99" version="1.1" xmlns="http://www.w3.org/2000/svg" xmlns:xlink="http://www.w3.org/1999/xlink">
    <!-- Generator: Sketch 42 (36781) - http://www.bohemiancoding.com/sketch -->
    <title>Group</title>
    <desc>Created with Sketch.</desc>
    <defs></defs>
    <g id="Page-1" stroke="none" stroke-width="1" fill="none" fill-rule="evenodd">
        <g id="Group">
            <circle id="Oval" fill="#404160" cx="49.5" cy="49.5" r="49.5"></circle>
            <g id="Mic" transform="translate(22.000000, 14.000000)">
                <g id="Page-1">
                    <g id="Mic">
                        <rect id="Rectangle-2" fill="#F3F3F3" fill-rule="nonzero" x="24" y="52" width="6" height="17" rx="3"></rect>
                        <path d="M30.0127393,52.1688385 L41.358473,40.8231047 C47.2161511,34.9654266 47.2198544,25.4719572 41.3537292,19.605832 L40.6993619,18.9514648 L40.6194869,18.8715897 C34.7615419,13.0136448 25.263002,13.0145793 19.4064748,18.8711065 L8.06074101,30.2168403" id="Oval" stroke="#F3F3F3" stroke-width="5" transform="translate(26.906634, 33.323630) rotate(135.000000) translate(-26.906634, -33.323630) "></path>
                        <rect id="Rectangle-2" fill="#F3F3F3" fill-rule="nonzero" transform="translate(26.750000, 67.000000) rotate(90.000000) translate(-26.750000, -67.000000) " x="23.75" y="58.5" width="6" height="17" rx="3"></rect>
                        <rect id="Rectangle-2" fill="#F3F3F3" fill-rule="nonzero" x="40" y="19" width="5" height="13" rx="2.5"></rect>
                        <rect id="Rectangle-2" fill="#F3F3F3" fill-rule="nonzero" x="40" y="19" width="5" height="13" rx="2.5"></rect>
                        <rect id="Rectangle-2" fill="#F3F3F3" fill-rule="nonzero" x="9" y="19" width="5" height="13" rx="2.5"></rect>
                        <path d="M37.8670174,39.195 C37.043346,44.455632 32.4926983,48.48 27,48.48 C21.5076956,48.48 16.9555374,44.4625634 16.1326502,39.195 L20.6096014,39.195 C21.3388374,39.195 21.93,38.6090984 21.93,37.875 C21.93,37.1459841 21.3433255,36.555 20.6096014,36.555 L16,36.555 L16,33.135 L20.6096014,33.135 C21.3388374,33.135 21.93,32.5490984 21.93,31.815 C21.93,31.0859841 21.3433255,30.495 20.6096014,30.495 L16,30.495 L16,27.075 L20.6096014,27.075 C21.3388374,27.075 21.93,26.4890984 21.93,25.755 C21.93,25.0259841 21.3433255,24.435 20.6096014,24.435 L16,24.435 L16,21.015 L20.6096014,21.015 C21.3388374,21.015 21.93,20.4290984 21.93,19.695 C21.93,18.9659841 21.3433255,18.375 20.6096014,18.375 L16,18.375 L16,14.955 L20.6096014,14.955 C21.3388374,14.955 21.93,14.3690984 21.93,13.635 C21.93,12.9059841 21.3433255,12.315 20.6096014,12.315 L16,12.315 L16,11.0008624 C16,4.92525387 20.923532,0 27,0 C33.0751322,0 38,4.91531444 38,11.0008624 L38,12.315 L33.3903986,12.315 C32.6611626,12.315 32.07,12.9009016 32.07,13.635 C32.07,14.3640159 32.6566745,14.955 33.3903986,14.955 L38,14.955 L38,18.375 L33.3903986,18.375 C32.6611626,18.375 32.07,18.9609016 32.07,19.695 C32.07,20.4240159 32.6566745,21.015 33.3903986,21.015 L38,21.015 L38,24.435 L33.3903986,24.435 C32.6611626,24.435 32.07,25.0209016 32.07,25.755 C32.07,26.4840159 32.6566745,27.075 33.3903986,27.075 L38,27.075 L38,30.495 L33.3903986,30.495 C32.6611626,30.495 32.07,31.0809016 32.07,31.815 C32.07,32.5440159 32.6566745,33.135 33.3903986,33.135 L38,33.135 L38,36.555 L33.3903986,36.555 C32.6611626,36.555 32.07,37.1409016 32.07,37.875 C32.07,38.6040159 32.6566745,39.195 33.3903986,39.195 L37.8670174,39.195 Z" id="Combined-Shape" fill="#F3F3F3" fill-rule="nonzero"></path>
                    </g>
                </g>
            </g>
        </g>
    </g>
</svg>