<svg xmlns="http://www.w3.org/2000/svg" xmlns:xlink="http://www.w3.org/1999/xlink" version="1.1" x="0px" y="0px" viewBox="0 0 100 125" enable-background="new 0 0 100 100" xml:space="preserve"><path fill="#000000" d="M82.838,79.187l-5.925-20.736C76.668,57.592,75.883,57,74.99,57h-9.704  c3.342-5.215,5.961-11.339,5.961-17.742C71.248,27.536,61.712,18,49.99,18s-21.258,9.536-21.258,21.258  c0,6.403,2.619,12.527,5.961,17.742H24.99c-0.893,0-1.678,0.592-1.923,1.451l-6,21c-0.173,0.604-0.052,1.252,0.326,1.754  C17.771,81.706,18.363,82,18.99,82h62c0.007-0.001,0.013,0,0.02,0c1.104,0,2-0.896,2-2C83.01,79.71,82.949,79.435,82.838,79.187z   M49.99,22c9.516,0,17.258,7.742,17.258,17.258c0,13.03-13.113,25.509-17.258,29.127c-4.145-3.618-17.258-16.097-17.258-29.127  C32.732,29.742,40.474,22,49.99,22z M21.641,78l4.857-17h11.01c5.179,6.738,10.809,11.229,11.244,11.571  C49.116,72.857,49.553,73,49.99,73s0.875-0.143,1.237-0.429c0.435-0.342,6.065-4.833,11.244-11.571h11.01l4.857,17H21.641z"/><path fill="#000000" d="M59.607,38.554c0-5.303-4.314-9.617-9.617-9.617s-9.617,4.314-9.617,9.617c0,5.302,4.314,9.616,9.617,9.616  S59.607,43.856,59.607,38.554z M44.373,38.554c0-3.097,2.52-5.617,5.617-5.617s5.617,2.52,5.617,5.617  c0,3.097-2.52,5.616-5.617,5.616S44.373,41.65,44.373,38.554z"/><text x="0" y="115" fill="#000000" font-size="5px" font-weight="bold" font-family="'Helvetica Neue', Helvetica, Arial-Unicode, Arial, Sans-serif">Created by Verve-s</text><text x="0" y="120" fill="#000000" font-size="5px" font-weight="bold" font-family="'Helvetica Neue', Helvetica, Arial-Unicode, Arial, Sans-serif">from the Noun Project</text></svg>